# xmcd
#
# Track frame offsets:
#	150
#	13309
#	25065
#	36037
#	48757
#	57944
#	70769
#	81580
#	92773
#	102689
#	112999
#	122702
#	132702
#	144368
#	156631
#	170704
#	185506
#	201280
#	213006
#	226031
#	237354
#	251649
#	265450
#	285438
#	296410
#	308011
#	320923
#	333455
#	351445
#
# Disc length: 4858 seconds
#
# Revision: 0
# Processed by: cddbd v1.5.1PL2 Copyright (c) Steve Scherf et al.
# Submitted via: EasyCDDAExtractor 4.6.9.1
#
DISCID=be12f81d
DTITLE=Johnny Cash - The Man In Black - 1963-1969 - CD 4
DYEAR=1995
DGENRE=Country
TTITLE0=Thunderball
TTITLE1=The Sons Of Katie Elder
TTITLE2=Put The Sugar To Bed
TTITLE3=Red Velvet
TTITLE4=Rosanna's Going Wild
TTITLE5=The Wind Changes
TTITLE6=On The Line
TTITLE7=Roll Call
TTITLE8=You Beat All I Ever Saw
TTITLE9=I Tremble For You
TTITLE10=Cattle Call (instrumental)
TTITLE11=Bill's Theme (instrumental)
TTITLE12=Outside Looking In (instrumental)
TTITLE13=Spanish Harlem (instrumental)
TTITLE14=The Folk Singer
TTITLE15=Southwind
TTITLE16=The Devil To Pay
TTITLE17='Cause I Love You
TTITLE18=See Ruby Fall
TTITLE19=Route #1, Box 144
TTITLE20=Sing A Traveling Song
TTITLE21=If I Were A Carpenter
TTITLE22=To Beat The Devil
TTITLE23=Blistered
TTITLE24=Wrinkled, Crinkled, Wadded Dollar Bill
TTITLE25=I've Got A Thing About Trains
TTITLE26=Six White Horses
TTITLE27=Jesus Was A Carpenter
TTITLE28=The Man In Black
EXTD=(c)1995 Bear Family Germany\nOriginal Columbia Records
EXTT0=
EXTT1=
EXTT2=
EXTT3=
EXTT4=
EXTT5=
EXTT6=
EXTT7=
EXTT8=
EXTT9=
EXTT10=
EXTT11=
EXTT12=
EXTT13=
EXTT14=
EXTT15=
EXTT16=
EXTT17=
EXTT18=
EXTT19=
EXTT20=
EXTT21=
EXTT22=
EXTT23=
EXTT24=
EXTT25=
EXTT26=
EXTT27=
EXTT28=
PLAYORDER=
